<svg width="1280" height="720" viewBox="0 0 1280 720" xmlns="http://www.w3.org/2000/svg">
  <defs>
    <linearGradient id="living-bg" x1="0" y1="0" x2="0" y2="1">
      <stop offset="0%" stop-color="#020617"/>
      <stop offset="70%" stop-color="#020617"/>
    </linearGradient>
  </defs>

  <rect width="1280" height="720" fill="url(#living-bg)" />
  <rect y="430" width="1280" height="290" fill="#020617"/>

  <!-- Sofa -->
  <rect x="240" y="360" width="520" height="150" rx="32" fill="#1e293b"/>
  <rect x="260" y="340" width="480" height="60" rx="28" fill="#111827"/>
  <rect x="270" y="375" width="150" height="80" rx="24" fill="#0f172a"/>
  <rect x="440" y="375" width="150" height="80" rx="24" fill="#0f172a"/>
  <rect x="610" y="375" width="150" height="80" rx="24" fill="#0f172a"/>

  <!-- Coffee table -->
  <rect x="420" y="470" width="260" height="30" rx="12" fill="#020617"/>
  <rect x="440" y="500" width="220" height="12" rx="6" fill="#020617"/>

  <!-- TV / frame -->
  <rect x="860" y="180" width="260" height="170" rx="18" fill="#020617" stroke="#1f2937" stroke-width="4"/>
  <rect x="875" y="195" width="230" height="140" rx="14" fill="#0f172a"/>

  <!-- Plant -->
  <rect x="190" y="360" width="26" height="90" rx="10" fill="#1f2937"/>
  <circle cx="203" cy="320" r="26" fill="#14532d"/>
  <circle cx="182" cy="330" r="22" fill="#15803d"/>
  <circle cx="224" cy="332" r="20" fill="#16a34a"/>

  <rect width="1280" height="720" fill="#000000" opacity="0.10"/>
</svg>
